<svg viewBox="0 0 960 960" xmlns="http://www.w3.org/2000/svg" xmlns:xlink="http://www.w3.org/1999/xlink" id="9865ed51-cc6b-4f54-b749-25c779c0e5be" overflow="hidden"><style>
.MsftOfcThm_Accent4_Fill_v2 {
 fill:#8064A2; 
}
</style>
<path d="M659.904 478 569.904 478 569.904 418 659.904 418C676.473 418 689.904 431.431 689.904 448L689.904 448C689.904 464.569 676.473 478 659.904 478Z" class="st0" fill="#505050"/><path d="M421.904 478 300.521 478C283.952 478 270.521 464.569 270.521 448L270.521 448C270.521 431.431 283.952 418 300.521 418L421.904 418 421.904 478Z" class="st0" fill="#505050"/><g><path d="M616.056 418C616.056 418 597.905 408 479.905 408 361.905 408 347.754 418 347.754 418 319.247 449.846 301.905 491.895 301.905 538L301.905 620C301.905 620 315.905 644 479.905 644 643.905 644 661.905 620 661.905 620L661.905 538C661.904 491.895 644.562 449.846 616.056 418Z" class="st1" fill="#D2D2D2"/><g><path d="M471.904 503.9 459.904 503.9 459.904 414.9 455.904 414.9 455.904 503.9 353.904 503.9 353.904 529.9 471.904 529.9 471.904 537.9 413.631 537.9 413.631 563.9 471.904 563.9 471.904 571.9 353.904 571.9 353.904 597.9 471.904 597.9 471.904 623.9 475.904 623.9 475.904 414.9 471.904 414.9Z" class="st2" fill="#E6E6E6"/><path d="M610.904 415.9 608.904 415.9C608.352 415.9 607.904 416.348 607.904 416.9L607.904 503.9 541.904 503.9 541.904 529.9 607.904 529.9 607.904 537.9 491.904 537.9 491.904 563.9 607.904 563.9 607.904 571.9 491.904 571.9 491.904 597.9 607.904 597.9 607.904 623.9 611.904 623.9 611.904 416.9C611.904 416.348 611.456 415.9 610.904 415.9Z" class="st2" fill="#E6E6E6"/><rect x="491.904" y="503.9" width="32" height="26" class="st2" fill="#E6E6E6"/></g><rect x="301.904" y="620" width="360" height="96" class="st0" fill="#505050"/><g><rect x="353.904" y="689.95" width="120" height="26.1" class="st3" fill="#2F2F2F"/><rect x="491.904" y="689.95" width="32" height="26.1" class="st3" fill="#2F2F2F"/><circle cx="633.904" cy="646" r="10" class="st4" fill="#737373"/><circle cx="633.904" cy="692" r="10" class="st4" fill="#737373"/><circle cx="325.904" cy="646" r="10" class="st4" fill="#737373"/><circle cx="325.904" cy="692" r="10" class="st4" fill="#737373"/><rect x="455.904" y="638" width="4" height="68" class="st4" fill="#737373"/><rect x="439.904" y="638" width="4" height="68" class="st4" fill="#737373"/><rect x="422.304" y="638" width="4" height="68" class="st4" fill="#737373"/><rect x="405.904" y="638" width="4" height="68" class="st4" fill="#737373"/></g><path d="M481.904 358C428.597 358 380.712 381.179 347.753 418L616.056 418C583.097 381.179 535.211 358 481.904 358Z" class="st4" fill="#737373"/></g><g><path d="M689.904 657.688 749.904 657.688C783.041 657.688 809.904 630.825 809.904 597.688L809.904 537.688C809.904 471.414 756.178 417.688 689.904 417.688L689.904 657.688Z" class="st1" fill="#D2D2D2"/><path d="M749.904 598C716.767 598 689.904 624.863 689.904 658L689.904 662 700.904 662C709.188 662 715.904 668.716 715.904 677 715.904 685.284 709.188 692 700.904 692L689.904 692 689.904 718C756.178 718 809.904 664.274 809.904 598L749.904 598Z" class="MsftOfcThm_Accent4_Fill_v2" fill="#8064A2"/><rect x="790.831" y="538" width="19.169" height="26" class="MsftOfcThm_Accent4_Fill_v2" fill="#8064A2"/><rect x="763.904" y="538" width="19.073" height="26" class="MsftOfcThm_Accent4_Fill_v2" fill="#8064A2"/></g><g><path d="M270.267 241 210.267 241C177.13 241 150.267 267.863 150.267 301L150.267 361C150.267 427.274 203.993 481 270.267 481L270.267 241Z" class="st1" fill="#D2D2D2"/><path d="M244.267 221.688C244.267 229.972 250.983 236.688 259.267 236.688L270.267 236.688 270.267 240.688C270.267 273.825 243.404 300.688 210.267 300.688L150.267 300.688C150.267 234.414 203.993 180.688 270.267 180.688L270.267 206.688 259.267 206.688C250.983 206.688 244.267 213.404 244.267 221.688Z" class="MsftOfcThm_Accent4_Fill_v2" fill="#8064A2"/><rect x="150" y="334.688" width="46.267" height="26" class="st4" fill="#737373"/></g><g><path d="M661.904 808C661.904 758.294 621.61 718 571.904 718L571.904 718C522.198 718 481.904 758.294 481.904 808 481.904 808 504.637 827.667 571.904 827.667 639.171 827.667 661.904 808 661.904 808Z" class="st1" fill="#D2D2D2"/><rect x="481.904" y="808" width="180" height="30" class="st0" fill="#505050" transform="matrix(-1 -2.24444e-11 2.24444e-11 -1 1143.81 1646)"/><rect x="541.904" y="796" width="68" height="26" class="st0" fill="#505050"/></g><g><path d="M300.904 808C300.904 758.294 341.198 718 390.904 718L390.904 718C440.61 718 480.904 758.294 480.904 808 480.904 808 458.637 826.333 390.904 826.333 323.171 826.333 300.904 808 300.904 808Z" class="st1" fill="#D2D2D2"/><rect x="300.904" y="808" width="180" height="30" class="MsftOfcThm_Accent4_Fill_v2" fill="#8064A2"/><rect x="381.904" y="794" width="68" height="26" class="st0" fill="#505050"/></g><g><path d="M596.125 234C591.219 228.996 585.977 224.328 580.452 220 553.283 198.721 519.09 186 481.904 186 444.718 186 410.525 198.721 383.356 220 377.832 224.328 372.589 228.996 367.683 234 339.378 262.862 321.904 302.382 321.904 346L321.904 380.091 641.904 380.091 641.904 346C641.904 302.382 624.43 262.862 596.125 234Z" class="MsftOfcThm_Accent4_Fill_v2" fill="#8064A2"/><circle cx="598.904" cy="285" r="5" class="st0" fill="#505050"/><circle cx="362.904" cy="285" r="5" class="st0" fill="#505050"/><g><circle cx="477.904" cy="292" r="40" class="st3" fill="#2F2F2F"/><circle cx="486.904" cy="285" r="5" class="st6" fill="#FFFFFF"/><circle cx="469.904" cy="272" r="10" class="st6" fill="#FFFFFF"/></g><rect x="321.887" y="354.2" width="120" height="26" class="st3" fill="#2F2F2F"/><rect x="569.892" y="354.2" width="40.012" height="26" class="st3" fill="#2F2F2F"/><rect x="521.892" y="354.2" width="40.012" height="26" class="st3" fill="#2F2F2F"/><path d="M481.904 196C479.695 196 477.904 194.209 477.904 192L477.904 122C477.904 119.791 479.695 118 481.904 118 484.113 118 485.904 119.791 485.904 122L485.904 192C485.904 194.209 484.113 196 481.904 196Z" class="MsftOfcThm_Accent4_Fill_v2" fill="#8064A2"/></g></svg>